Coordinates
version=1
nRows=43
nColumns=12
inDegrees=yes

Units are S.I. units (second, meters, Newtons, ...)
Angles are in degrees

endheader
time	SC_y	SC_z	SC_x	AC_y	AC_z	AC_x	GH_y	GH_z	GH_yy	EL_x	PS_y
       0.0              -59.08          26.24          16.41          32.24         -7.202         -19.36          151.1          42.78         -5.514          50.74          95.31
   0.02751              -59.07          26.24          16.42          32.24         -7.201         -19.36          151.1          42.77          -5.49          50.74          95.31
   0.05502              -59.07          26.24          16.43          32.24         -7.199         -19.35          151.1          42.77         -5.465          50.74          95.32
   0.08253              -59.07          26.24          16.44          32.24         -7.198         -19.35          151.0          42.76         -5.438          50.74          95.32
      0.11              -59.07          26.24          16.45          32.24         -7.196         -19.34          151.0          42.76         -5.409          50.74          95.32
    0.1375              -59.06          26.24          16.46          32.24         -7.195         -19.34          151.0          42.75         -5.378          50.73          95.32
    0.1651              -59.06          26.24          16.47          32.24         -7.193         -19.33          150.9          42.74         -5.345          50.73          95.32
    0.1926              -59.06          26.24          16.48          32.24         -7.191         -19.32          150.9          42.74          -5.31          50.73          95.32
    0.2201              -59.05          26.24           16.5          32.25         -7.189         -19.31          150.8          42.73         -5.273          50.73          95.32
    0.2476              -59.05          26.24          16.51          32.25         -7.187          -19.3          150.8          42.72         -5.232          50.72          95.32
    0.2751              -59.05          26.24          16.53          32.25         -7.184          -19.3          150.7          42.71         -5.189          50.72          95.32
    0.3026              -59.04          26.24          16.54          32.25         -7.182         -19.29          150.7           42.7         -5.143          50.72          95.32
    0.3301              -59.04          26.24          16.56          32.25         -7.179         -19.27          150.6          42.69         -5.092          50.71          95.33
    0.3576              -59.03          26.24          16.58          32.26         -7.176         -19.26          150.5          42.68         -5.038          50.71          95.33
    0.3851              -59.03          26.24           16.6          32.26         -7.173         -19.25          150.4          42.67         -4.979          50.71          95.33
    0.4126              -59.02          26.24          16.63          32.26          -7.17         -19.24          150.4          42.66         -4.916           50.7          95.33
    0.4402              -59.01          26.24          16.65          32.27         -7.166         -19.22          150.3          42.65         -4.846           50.7          95.33
    0.4677              -59.01          26.24          16.68          32.27         -7.162         -19.21          150.2          42.63         -4.771          50.69          95.34
    0.4952               -59.0          26.24          16.71          32.27         -7.158         -19.19          150.1          42.62         -4.689          50.69          95.34
    0.5227              -58.99          26.24          16.74          32.28         -7.153         -19.17          149.9           42.6         -4.599          50.68          95.34
    0.5502              -58.98          26.24          16.78          32.28         -7.147         -19.15          149.8          42.58           -4.5          50.67          95.34
    0.5777              -58.97          26.24          16.82          32.29         -7.142         -19.13          149.7          42.56         -4.391          50.66          95.35
    0.6052              -58.96          26.23          16.86          32.29         -7.135          -19.1          149.5          42.53          -4.27          50.66          95.35
    0.6327              -58.95          26.23          16.91           32.3         -7.128         -19.07          149.3          42.51         -4.137          50.65          95.35
    0.6602              -58.93          26.23          16.97           32.3          -7.12         -19.04          149.1          42.48         -3.989          50.64          95.36
    0.6877              -58.92          26.23          17.03          32.31         -7.111         -19.01          148.9          42.45         -3.824          50.62          95.36
    0.7153               -58.9          26.23          17.09          32.32         -7.101         -18.97          148.7          42.41         -3.638          50.61          95.37
    0.7428              -58.88          26.23          17.17          32.33          -7.09         -18.92          148.4          42.37          -3.43           50.6          95.37
    0.7703              -58.86          26.23          17.26          32.34         -7.077         -18.87          148.1          42.32         -3.195          50.58          95.38
    0.7978              -58.83          26.22          17.35          32.35         -7.063         -18.81          147.7          42.27         -2.927          50.56          95.39
    0.8253               -58.8          26.22          17.46          32.36         -7.047         -18.75          147.3          42.21         -2.622          50.54           95.4
    0.8528              -58.77          26.22          17.59          32.38         -7.028         -18.68          146.9          42.14         -2.272          50.51          95.41
    0.8803              -58.73          26.22          17.74           32.4         -7.006         -18.59          146.3          42.06         -1.868          50.49          95.42
    0.9078              -58.69          26.21          17.91          32.42         -6.981         -18.49          145.7          41.97         -1.398          50.45          95.43
    0.9353              -58.64          26.21          18.11          32.44         -6.951         -18.37          145.0          41.87        -0.8483          50.41          95.45
    0.9628              -58.57           26.2          18.35          32.47         -6.917         -18.24          144.1          41.74        -0.2003          50.37          95.47
    0.9904               -58.5           26.2          18.63          32.51         -6.875         -18.07          143.1          41.59         0.5697          50.31          95.49
     1.018              -58.41          26.19          18.97          32.55         -6.826         -17.88          141.9          41.41          1.493          50.25          95.51
     1.045              -58.31          26.18          19.37           32.6         -6.766         -17.64          140.4          41.19          2.609          50.17          95.54
     1.073              -58.18          26.17          19.87          32.66         -6.693         -17.35          138.6          40.92          3.973          50.07          95.58
       1.1              -58.02          26.16          20.49          32.73         -6.602         -16.99          136.4           40.6          5.657          49.96          95.63
     1.128              -57.82          26.14          21.25          32.82          -6.49         -16.54          133.6          40.19          7.756          49.81          95.69
     1.155              -57.57          26.12          22.22          32.94         -6.348         -15.98          130.1          39.67           10.4          49.62          95.77
